<svg xmlns="http://www.w3.org/2000/svg" viewBox="0 0 24 24" width="24" height="24" stroke="gray" stroke-width="2" stroke-linecap="round" stroke-linejoin="round" fill="none">
  <circle cx="12" cy="12" r="3"/>
  <path d="M19.4 12c0-1.34-.46-2.56-1.22-3.52l1.44-1.43c.39-.39.39-1.03 0-1.42s-1.02-.39-1.41 0l-1.42 1.42C15.56 6.47 14.34 6 13 6s-2.56.47-3.51 1.27L8.07 5.85c-.39-.39-1.03-.39-1.42 0s-.39 1.03 0 1.42l1.42 1.42C6.46 9.44 6 10.66 6 12s.46 2.56 1.27 3.51l-1.42 1.42c-.39.39-.39 1.03 0 1.42s1.03.39 1.42 0l1.42-1.42c.94.8 2.16 1.27 3.51 1.27s2.56-.47 3.52-1.27l1.42 1.42c.39.39 1.03.39 1.42 0s.39-1.03 0-1.42l-1.43-1.44c.76-.96 1.22-2.18 1.22-3.52zM12 15a3 3 0 1 1 0-6 3 3 0 0 1 0 6z"/>
</svg>
